 <svg class="icon-20" xmlns="http://www.w3.org/2000/svg" width="20" viewBox="0 0 24 24" fill="none">
                                                                        <g>
                                                                            <g>
                                                                                <path d="M18.5 6V12C18.5 12.2761 18.2761 12.5 18 12.5H13.4142C13.2816 12.5 13.1544 12.4473 13.0607 12.3536L12.6464 11.9393C12.3651 11.658 11.9836 11.5 11.5858 11.5H6C5.72386 11.5 5.5 11.2761 5.5 11V5C5.5 4.72386 5.72386 4.5 6 4.5H11.5858C11.7184 4.5 11.8456 4.55268 11.9393 4.64645L12.3536 5.06066C12.6349 5.34197 13.0164 5.5 13.4142 5.5H18C18.2761 5.5 18.5 5.72386 18.5 6Z" stroke="currentColor"/>
                                                                                <rect x="5" y="4" width="1" height="16" rx="0.5" stroke="currentColor"/>
                                                                            </g>
                                                                        </g>
                                                                    </svg>