<svg width="20" height="20" viewBox="38.75 38.75 241.875 239.375" class="icon" xmlns="http://www.w3.org/2000/svg"><g stroke-width="0"/><g stroke-linecap="round" stroke-linejoin="round"/><path d="m230.313 62.188 -15 -4.063 15 -4.063L234.375 38.75l4.063 15.313L253.75 58.125l-15.313 4.063 -4.063 15zm15 16.563 -5.938 -1.563 5.938 -1.25 1.25 -5.938 1.563 5.938 5.625 1.25 -5.625 1.563 -1.563 5.625z" fill="#FDCD60"/><path d="M65.625 78.75a2.813 2.813 0 1 0 5.625 0 2.813 2.813 0 1 0 -5.625 0" fill="#5546CB"/><path d="m59.375 268.125 -10.313 -2.5 10.313 -2.188 2.188 -10.313 2.5 10.313 10 2.188 -10 2.5 -2.5 10zM44.375 183.75l-0.938 4.688L38.75 189.375l4.688 0.938L44.375 195l0.938 -4.688L50 189.375l-4.688 -0.938z" fill="#FDCD60"/><path d="M162.188 175.313c-2.813 -2.5 -3.75 -2.5 -4.063 -2.5s-6.563 5.938 -10 10.938 -5.313 7.813 -8.75 11.563a52.188 52.188 0 0 0 9.375 3.125c7.5 1.563 15 1.563 21.25 -0.313a52.188 52.188 0 0 0 9.375 -4.063q-5.156 -5.156 -9.375 -10.313c-4.219 -5.156 -5.625 -6.25 -7.813 -8.438" fill="#AFBCF3"/><path d="M237.5 167.188c-2.5 -25.938 -10.625 -29.375 -13.438 -30.313 -8.125 -2.5 -31.25 -3.125 -55.938 -3.125s-54.375 0.938 -69.063 1.563c-6.25 0.313 -10.938 2.5 -14.063 6.25s-5.938 12.813 -5.938 20.625a8.75 8.75 0 0 1 0.313 2.5v9.375q0.469 5.156 0.938 9.375c1.875 14.375 16.875 16.875 39.063 15.938 10.313 -0.313 17.188 -10.625 23.75 -19.688s9.375 -13.438 15 -13.75 10.313 5.625 16.875 13.125 16.875 19.688 27.188 20.313c13.75 0.938 23.75 -1.875 29.688 -7.813s6.563 -13.438 5.625 -24.375" fill="#FDCD60"/><path d="M66.563 162.813H73.125v13.422h-6.563zm177.5 0H250.625v13.422h-6.563z" fill="#FF8859"/><path d="M235.938 196.25c3.75 -3.75 6.25 -8.75 7.188 -14.375l3.438 0.625h1.563a8.75 8.75 0 0 0 8.75 -8.75v-8.438a8.75 8.75 0 0 0 -6.25 -8.438c2.188 -16.875 -0.938 -30.938 -9.375 -41.563S223.438 100 209.063 95.625s-31.875 -6.25 -53.125 -5.938 -39.375 2.5 -53.438 6.875 -24.688 11.25 -31.25 20 -9.688 24.375 -6.25 40.938a8.75 8.75 0 0 0 -4.688 7.813V173.75a8.75 8.75 0 0 0 8.75 8.75h1.563l3.125 -0.625v2.813c1.25 9.375 6.563 15.938 16.563 19.063 6.25 2.188 13.75 2.5 21.25 2.5H119.375c5.938 -0.313 10.625 -2.813 15 -6.25a58.75 58.75 0 0 0 12.813 4.375 53.75 53.75 0 0 0 11.563 1.25 45 45 0 0 0 13.125 -1.875 60.938 60.938 0 0 0 12.5 -5.625c5.313 4.375 10.938 7.5 17.5 7.813 15.313 0.938 26.875 -2.188 34.063 -9.688m12.188 -33.438a2.5 2.5 0 0 1 2.5 2.5V173.75a2.5 2.5 0 0 1 -2.5 2.5h-1.563a2.5 2.5 0 0 1 -2.5 -2.5v-8.438a2.5 2.5 0 0 1 2.5 -2.5zM72.813 173.75a2.5 2.5 0 0 1 -2.5 2.5H68.75a2.5 2.5 0 0 1 -2.5 -2.5v-8.438a2.5 2.5 0 0 1 2.5 -2.5h1.563a2.5 2.5 0 0 1 2.5 2.5zm0 -16.875h-1.875c-1.563 -6.563 -2.188 -12.813 -1.563 -18.125s2.813 -13.125 6.563 -18.125C87.5 105 114.375 96.875 155.625 96.25s67.813 7.5 80.313 23.125c4.375 5.313 7.188 11.875 8.125 19.375s0.625 11.875 -0.313 18.438l-1.563 0.625c-1.875 -9.688 -5.938 -22.5 -16.25 -26.25h-0.313c-7.813 -2.5 -28.125 -3.438 -60.313 -3.438 -25.625 0 -52.813 0.938 -67.188 1.563 -7.813 0.313 -14.063 3.125 -18.438 8.438s-5.938 11.563 -6.875 18.75m96.875 40.938c-6.25 1.875 -14.063 2.188 -21.25 0.313a52.188 52.188 0 0 1 -9.375 -3.125c3.438 -3.75 6.25 -7.813 8.75 -11.563s7.5 -10.938 10 -10.938 1.563 0 4.063 2.5 5 5 7.5 8.125 5.938 6.875 9.375 10.313a52.188 52.188 0 0 1 -9.063 4.375m31.875 1.875C191.25 199.063 181.875 188.125 174.375 179.375s-11.563 -13.438 -16.875 -13.125 -10 6.563 -15 13.75 -13.438 19.375 -23.75 19.688c-22.188 0.938 -37.188 -1.563 -39.063 -15.938 -0.313 -2.5 -0.625 -5.938 -0.938 -9.375v-9.063a8.75 8.75 0 0 0 -0.313 -2.5c0.313 -7.813 1.875 -15.625 5.938 -20.625s7.813 -5.938 14.063 -6.25c15 -0.938 43.125 -1.563 69.063 -1.563s48.125 0.938 55.938 3.125c2.813 0.938 10.938 4.375 13.438 30.313 0.938 10.938 -0.938 19.063 -6.25 24.688s-15 8.125 -29.063 7.188" fill="#5546CB"/><path d="M167.5 220.313a4.063 4.063 0 1 0 4.063 4.063 4.063 4.063 0 0 0 -4.063 -4.063" fill="#FFF"/><path d="M167.5 216.563a7.813 7.813 0 1 0 7.813 7.813 7.813 7.813 0 0 0 -7.813 -7.813m0 11.563a4.063 4.063 0 1 1 4.063 -4.063 4.063 4.063 0 0 1 -4.063 4.063" fill="#5546CB"/><path d="M138.125 238.125a5.938 5.938 0 1 0 5.938 5.938 5.938 5.938 0 0 0 -5.938 -5.938" fill="#FFF"/><path d="M138.125 233.438a10.625 10.625 0 1 0 10.625 10.625 10.625 10.625 0 0 0 -10.625 -10.625m0 16.563a5.938 5.938 0 1 1 5.938 -5.938 5.938 5.938 0 0 1 -5.938 5.938" fill="#5546CB"/><path d="M94.688 224.063A10.313 10.313 0 1 0 105 234.375a10.313 10.313 0 0 0 -10.313 -10.313" fill="#FFF"/><path d="M94.688 217.813A16.563 16.563 0 1 0 111.25 234.375a16.563 16.563 0 0 0 -16.563 -16.563m0 26.875A10.313 10.313 0 1 1 105 234.375a10.313 10.313 0 0 1 -10.313 10z" fill="#5546CB"/><path d="M274.375 258.438V85.625c0 -0.625 -1.875 -3.75 -4.375 -3.75s-4.375 1.563 -4.375 3.75v171.563h-30.625V243.125h2.813a2.5 2.5 0 0 0 -0.313 -5h-10.625a2.5 2.5 0 0 0 -0.313 5h2.813v13.75h-2.813a5.625 5.625 0 0 0 0.625 10.938h43.75c0.938 0 2.188 0 2.813 -0.625s0.938 -3.75 0.938 -8.125zm0 -40.625h-8.438V185H274.375zm0 -81.875h-8.438V103.125H274.375z" fill="#AFBCF3"/><path d="M280.625 259.375V85.313c0 -5.313 -4.688 -10 -10.625 -10s-10.625 4.375 -10.625 10v165.625h-18.125V248.125a8.75 8.75 0 0 0 -3.75 -16.563h-10.625a8.75 8.75 0 0 0 -3.75 16.563v3.438a11.875 11.875 0 0 0 4.375 22.5h43.438c1.875 0 5 -0.313 7.188 -2.5s2.5 -6.25 2.5 -12.188m-7.188 8.125c-0.625 0.625 -1.875 0.625 -2.813 0.625h-43.125a5.625 5.625 0 0 1 -0.625 -10.938h2.813V243.125H226.875a2.5 2.5 0 0 1 0.313 -5H237.5a2.5 2.5 0 0 1 0.313 5H235v14.063h30.625v-171.875c0 -1.875 1.875 -3.75 4.375 -3.75s4.375 1.563 4.375 3.75V259.375c0 4.375 0 7.188 -0.938 8.125" fill="#5546CB"/><path d="M265.938 103.125H274.375v32.734h-8.438z" fill="#FFF"/><path d="M265.938 185H274.375v32.734h-8.438z" fill="#FF8859"/></svg>