<svg version="1.1" id="Layer_1" xmlns="http://www.w3.org/2000/svg" xmlns:xlink="http://www.w3.org/1999/xlink" x="0px" y="0px" viewBox="0 0 20 20" style="enable-background:new 0 0 512.009 512.009;" xml:space="preserve" width="20" height="20"><g><g><g><path d="M12 16.333c0 0.184 0.15 0.333 0.333 0.333h0c0.184 0 0.333 -0.149 0.333 -0.333 0 -0.039 -0.003 -0.979 -0.307 -1.934 -0.43 -1.351 -1.246 -2.066 -2.359 -2.066 -1.113 0 -1.929 0.714 -2.359 2.066 -0.304 0.955 -0.307 1.895 -0.307 1.934a0.333 0.333 0 0 0 0.333 0.333 0.333 0.333 0 0 0 0.333 -0.333c0 -0.033 0.023 -3.333 2 -3.333 1.972 0 2 3.3 2 3.334"/><path d="M5.518 6.632c0.057 0.029 1.439 0.702 4.482 0.702 1.135 0 2.167 -0.093 3.067 -0.276 0.18 -0.037 0.297 -0.213 0.26 -0.393 -0.037 -0.18 -0.212 -0.296 -0.393 -0.26 -0.857 0.174 -1.844 0.263 -2.934 0.263 -2.184 0 -3.464 -0.364 -3.954 -0.539 0.235 -1.12 1.317 -5.461 3.954 -5.461 0.242 0 0.475 0.004 0.7 0.012 0.079 0.002 0.151 0.008 0.228 0.012 0.141 0.007 0.285 0.013 0.42 0.023 0.081 0.006 0.156 0.015 0.235 0.022 0.122 0.011 0.246 0.021 0.361 0.034 0.079 0.009 0.151 0.021 0.227 0.031 0.107 0.015 0.217 0.028 0.319 0.045 0.077 0.013 0.146 0.028 0.219 0.041 0.093 0.017 0.189 0.034 0.278 0.053 0.071 0.015 0.137 0.033 0.205 0.05 0.082 0.02 0.168 0.039 0.245 0.061 0.065 0.018 0.123 0.038 0.185 0.057 0.074 0.023 0.15 0.045 0.219 0.069 0.059 0.02 0.111 0.043 0.166 0.064 0.065 0.025 0.132 0.05 0.193 0.076 0.052 0.022 0.098 0.047 0.147 0.07 0.057 0.027 0.116 0.054 0.169 0.082 0.046 0.025 0.086 0.051 0.129 0.076 0.049 0.029 0.101 0.058 0.146 0.088 0.04 0.026 0.074 0.053 0.111 0.08 0.042 0.031 0.086 0.061 0.124 0.093 0.033 0.027 0.062 0.056 0.092 0.084 0.035 0.032 0.072 0.064 0.103 0.096 0.028 0.029 0.051 0.058 0.076 0.088 0.028 0.033 0.058 0.066 0.083 0.099 0.022 0.03 0.04 0.06 0.059 0.09 0.021 0.034 0.045 0.067 0.063 0.101 0.017 0.031 0.029 0.062 0.044 0.094 0.015 0.034 0.032 0.067 0.044 0.101 0.011 0.032 0.019 0.064 0.028 0.095 0.007 0.028 0.016 0.055 0.022 0.083 -0.301 0.054 -0.594 0.075 -0.862 0.076 -0.428 -0.017 -0.894 -0.071 -1.264 -0.134 -0.171 -0.31 -0.362 -0.612 -0.583 -0.888a0.334 0.334 0 0 0 -0.469 -0.052c-0.143 0.115 -0.167 0.325 -0.052 0.468 1.257 1.572 1.593 4.141 1.596 4.167a0.334 0.334 0 0 0 0.33 0.292c0.014 0 0.028 -0.001 0.042 -0.002 0.183 -0.023 0.312 -0.19 0.289 -0.372 -0.01 -0.08 -0.191 -1.459 -0.792 -2.868a6.601 6.601 0 0 0 0.836 0.057c0.548 0.024 1.121 -0.006 1.453 -0.189 0.004 -0.002 0.008 -0.006 0.012 -0.009 0.01 -0.006 0.018 -0.013 0.027 -0.02 0.018 -0.014 0.035 -0.029 0.05 -0.046 0.008 -0.009 0.015 -0.018 0.021 -0.027a0.324 0.324 0 0 0 0.033 -0.061c0.004 -0.01 0.009 -0.019 0.012 -0.029 0.01 -0.032 0.017 -0.066 0.017 -0.101C16.333 2.296 15.876 0 10 0c-3.574 0 -4.619 6.022 -4.662 6.279a0.333 0.333 0 0 0 0.18 0.353"/><path d="M8 10a0.333 0.333 0 0 0 0.333 0.333 0.333 0.333 0 0 0 0.333 -0.333h0.333a0.333 0.333 0 0 0 0.333 -0.333 0.333 0.333 0 0 0 -0.333 -0.333H7.667a0.333 0.333 0 0 0 -0.333 0.333A0.333 0.333 0 0 0 7.667 10z"/><path d="M10 8.667c3.459 0 10 -0.487 10 -2.333 0 -1.17 -2.679 -1.755 -4.927 -2.039 -0.18 -0.022 -0.349 0.106 -0.372 0.289 -0.023 0.183 0.106 0.349 0.289 0.373 3.282 0.415 4.344 1.107 4.344 1.377 0 0.566 -3.294 1.667 -9.333 1.667S0.667 6.899 0.667 6.333c0 -0.272 1.07 -0.967 4.376 -1.381a0.333 0.333 0 0 0 0.289 -0.372c-0.023 -0.183 -0.19 -0.314 -0.372 -0.289C2.697 4.574 0 5.159 0 6.333c0 1.846 6.541 2.333 10 2.333"/><path d="M9.667 13.666a0.333 0.333 0 0 0 -0.333 0.333 0.333 0.333 0 0 0 0.333 0.333h0.667a0.333 0.333 0 0 0 0.333 -0.333 0.333 0.333 0 0 0 -0.333 -0.333z"/><path d="M12.333 9.333h-1.333a0.333 0.333 0 0 0 -0.333 0.333 0.333 0.333 0 0 0 0.333 0.333h0.333a0.333 0.333 0 0 0 0.333 0.333 0.333 0.333 0 0 0 0.333 -0.333h0.333a0.333 0.333 0 0 0 0.333 -0.333 0.333 0.333 0 0 0 -0.333 -0.333"/><path d="M15.285 10.625c0.413 -0.123 0.715 -0.506 0.715 -0.959V9a0.333 0.333 0 0 0 -0.333 -0.333 0.333 0.333 0 0 0 -0.333 0.333v0.667a0.333 0.333 0 0 1 -0.333 0.333 0.334 0.334 0 0 0 -0.329 0.279c-0.003 0.019 -0.315 1.846 -0.904 2.797 -0.247 0.116 -0.612 0.258 -0.767 0.258a0.333 0.333 0 0 0 -0.333 0.333 0.333 0.333 0 0 0 0.333 0.333c0.203 0 0.47 -0.082 0.698 -0.17 0.071 2.586 -1.627 5.169 -3.698 5.5 -2.071 -0.331 -3.769 -2.914 -3.698 -5.5 0.228 0.088 0.495 0.17 0.698 0.17a0.333 0.333 0 0 0 0.333 -0.333 0.333 0.333 0 0 0 -0.333 -0.333c-0.155 0 -0.519 -0.142 -0.767 -0.258 -0.59 -0.951 -0.901 -2.778 -0.904 -2.797a0.334 0.334 0 0 0 -0.329 -0.279c-0.184 0 -0.333 -0.149 -0.333 -0.333V9a0.333 0.333 0 0 0 -0.333 -0.333 0.333 0.333 0 0 0 -0.333 0.333v0.667c0 0.452 0.302 0.836 0.715 0.959 0.108 0.552 0.417 1.93 0.942 2.79 -0.285 3.098 1.738 6.216 4.296 6.582 0.016 0.002 0.031 0.003 0.047 0.003 0.016 0 0.032 -0.001 0.047 -0.003 2.558 -0.365 4.581 -3.484 4.296 -6.582 0.525 -0.859 0.833 -2.238 0.942 -2.79"/><path d="m19.983 19.561 -0.333 -1c-0.39 -1.17 -1.304 -1.895 -4.65 -1.895a0.333 0.333 0 0 0 -0.333 0.333 0.333 0.333 0 0 0 0.333 0.333c3.264 0 3.774 0.711 4.017 1.439l0.333 1a0.333 0.333 0 0 0 0.316 0.228 0.336 0.336 0 0 0 0.106 -0.017c0.174 -0.058 0.269 -0.247 0.211 -0.422"/><path d="M5 16.667c-3.345 0 -4.259 0.725 -4.649 1.894l-0.333 1c-0.058 0.175 0.036 0.363 0.211 0.422a0.332 0.332 0 0 0 0.105 0.017 0.334 0.334 0 0 0 0.316 -0.228l0.333 -1c0.243 -0.728 0.753 -1.439 4.017 -1.439a0.333 0.333 0 0 0 0.333 -0.333 0.333 0.333 0 0 0 -0.333 -0.333"/></g></g></g></svg>